<?xml version="1.0" encoding="UTF-8"?>
<svg id="Layer_1" data-name="Layer 1" xmlns="http://www.w3.org/2000/svg" width="354.52mm" height="175.09mm" viewBox="0 0 1004.94 496.31">
  <defs>
    <style>
      .cls-1 {
        fill: #fff;
      }

      .cls-2 {
        fill: #333;
      }
    </style>
  </defs>
  <rect class="cls-2" width="1004.94" height="496.31"/>
  <g>
    <path class="cls-1" d="m133.9,77.28c0,33.3-19.83,54.29-51.4,54.29s-51.4-20.79-51.4-55.06,19.44-55.06,51.21-55.06,51.59,20.6,51.59,55.83Zm-75.85-.77c0,19.83,9.82,33.3,24.45,33.3s24.45-13.48,24.45-32.92c0-20.41-9.62-33.69-24.45-33.69s-24.45,13.48-24.45,33.3Z"/>
    <path class="cls-1" d="m250.56,76.7c0,31.57-18.48,55.06-43.51,55.06-13.09,0-22.33-5.39-28.88-16.94v54.29h-26.95V23.19h26.95v15.4c6.54-11.55,15.79-17.13,28.88-17.13,26.95,0,43.51,24.64,43.51,55.25Zm-72.38,0c0,19.44,9.24,32.53,22.72,32.53s22.72-13.28,22.72-32.15c0-19.83-9.05-33.11-22.72-33.11s-22.72,13.28-22.72,32.73Z"/>
    <path class="cls-1" d="m358.75,79.01c0,1.35,0,2.31-.19,4.62h-69.69c.58,14.05,3.46,27.34,21.56,27.34,9.82,0,17.33-4.81,20.6-13.09h26.57c-5.97,20.41-24.83,33.69-48.13,33.69-29.45,0-47.55-20.41-47.55-53.71s18.29-56.4,48.13-56.4c20.79,0,48.7,11.55,48.7,57.56Zm-49.09-36.96c-11.94,0-18.67,7.89-20.41,23.68h41.39c-1.16-15.21-8.47-23.68-20.98-23.68Z"/>
    <path class="cls-1" d="m400.92,23.19v15.02c7.7-11.55,17.13-16.75,31.19-16.75,22.14,0,34.84,13.09,34.84,36v69.69h-26.95V63.04c0-12.32-5.77-18.67-17.33-18.67-13.09,0-21.75,8.08-21.75,20.41v62.37h-26.95V23.19h26.95Z"/>
    <path class="cls-1" d="m77.5,270.39c12.51,0,20.02-3.85,20.02-10.2,0-4.23-2.31-6.35-9.05-8.47l-32.15-10.01c-5.97-1.92-22.72-5.2-22.72-25.6s16.36-34.65,42.74-34.65c27.91,0,44.85,13.28,45.24,35.23h-25.99c-.19-9.43-6.54-14.05-19.44-14.05-9.43,0-15.59,3.85-15.59,9.63,0,4.23,1.93,5.77,9.43,8.08l34.07,9.82c13.67,4.04,20.41,12.71,20.41,26.18,0,14.44-9.05,35.23-45.43,35.23-31.57,0-48.32-11.94-49.09-34.65h26.37c1.54,7.12,4.23,13.48,21.18,13.48Z"/>
    <path class="cls-1" d="m239.01,237.28c0,33.3-19.83,54.29-51.4,54.29s-51.4-20.79-51.4-55.06,19.44-55.06,51.21-55.06,51.59,20.6,51.59,55.83Zm-75.85-.77c0,19.83,9.82,33.3,24.45,33.3s24.45-13.48,24.45-32.92c0-20.41-9.62-33.69-24.45-33.69s-24.45,13.48-24.45,33.3Z"/>
    <path class="cls-1" d="m321.41,287.14v-12.32c-7.7,11.55-17.13,16.75-31.19,16.75-22.14,0-34.84-13.09-34.84-36v-72.38h26.95v66.8c0,12.51,5.77,18.67,17.33,18.67,13.09,0,21.75-8.08,21.75-20.41v-65.07h26.95v103.95h-26.95Z"/>
    <path class="cls-1" d="m398.99,183.19v20.41c5.77-14.05,16.56-22.14,28.88-22.14.77,0,1.73,0,3.27.19v27.34c-3.66-.58-5.58-.77-8.47-.77-15.79,0-23.68,7.89-23.68,23.68v55.25h-26.95v-103.95h26.95Z"/>
    <path class="cls-1" d="m465.41,237.28c0,20.21,8.28,32.53,21.95,32.53,10.4,0,15.79-5.2,19.25-18.67h25.8c-2.5,24.83-20.02,40.43-45.24,40.43-30.8,0-48.7-20.02-48.7-54.29s18.1-55.83,49.09-55.83c25.99,0,42.93,15.21,44.85,40.62h-25.8c-3.08-13.67-8.28-18.87-19.25-18.87-18.67,0-21.95,19.64-21.95,34.07Z"/>
    <path class="cls-1" d="m640.01,239.01c0,1.35,0,2.31-.19,4.62h-69.69c.58,14.05,3.47,27.34,21.56,27.34,9.82,0,17.33-4.81,20.6-13.09h26.57c-5.97,20.41-24.83,33.69-48.13,33.69-29.45,0-47.55-20.41-47.55-53.71s18.29-56.4,48.13-56.4c20.79,0,48.7,11.55,48.7,57.56Zm-49.09-36.96c-11.94,0-18.67,7.89-20.41,23.68h41.39c-1.15-15.21-8.47-23.68-20.98-23.68Z"/>
    <path class="cls-1" d="m125.43,399.01c0,1.35,0,2.31-.19,4.62H55.55c.58,14.05,3.47,27.34,21.56,27.34,9.82,0,17.33-4.81,20.6-13.09h26.57c-5.97,20.41-24.83,33.69-48.13,33.69-29.45,0-47.55-20.41-47.55-53.71s18.29-56.4,48.13-56.4c20.79,0,48.7,11.55,48.7,57.56Zm-49.09-36.96c-11.94,0-18.67,7.89-20.41,23.68h41.39c-1.16-15.21-8.47-23.68-20.98-23.68Z"/>
    <path class="cls-1" d="m167.59,447.14l-36.38-103.95h28.49l22.52,76.04,20.98-76.04h28.49l-35.81,103.95h-28.3Z"/>
    <path class="cls-1" d="m333.73,399.01c0,1.35,0,2.31-.19,4.62h-69.69c.58,14.05,3.46,27.34,21.56,27.34,9.82,0,17.33-4.81,20.6-13.09h26.57c-5.97,20.41-24.83,33.69-48.13,33.69-29.45,0-47.55-20.41-47.55-53.71s18.29-56.4,48.13-56.4c20.79,0,48.7,11.55,48.7,57.56Zm-49.09-36.96c-11.94,0-18.67,7.89-20.41,23.68h41.39c-1.16-15.21-8.47-23.68-20.98-23.68Z"/>
    <path class="cls-1" d="m377.82,343.19v20.41c5.77-14.05,16.56-22.14,28.88-22.14.77,0,1.73,0,3.27.19v27.33c-3.66-.58-5.58-.77-8.47-.77-15.79,0-23.68,7.89-23.68,23.68v55.25h-26.95v-103.95h26.95Z"/>
    <path class="cls-1" d="m454.05,451.37l-38.69-108.19h29.65l22.91,75.66,21.56-75.66h27.72l-42.74,123.01c-2.5,7.12-5.2,23.1-34.65,23.1-3.27,0-5.58-.19-9.63-.77v-20.21c3.47.96,5.01,1.15,7.12,1.15,9.43,0,16.75-7.51,16.75-17.33v-.77Z"/>
    <path class="cls-1" d="m577.65,363.21h-15.02v56.6c0,9.24,1.73,11.36,8.86,11.36,1.92,0,3.46-.19,6.16-.58v18.87c-4.81,1.54-9.63,2.12-15.59,2.12-17.71,0-26.37-8.08-26.37-24.45v-63.91h-13.28v-17.9h13.28v-27.91h26.95v27.91h15.02v17.9Z"/>
    <path class="cls-1" d="m641.56,364.36c-12.13,0-20.79,8.47-20.79,20.41v62.37h-26.95v-140.34h26.95v51.4c7.51-11.36,17.13-16.75,30.42-16.75,14.82,0,33.88,7.12,33.88,36v69.69h-26.95v-63.53c0-11.17-4.04-19.25-16.56-19.25Z"/>
    <path class="cls-1" d="m733.58,330.87h-26.95v-24.06h26.95v24.06Zm0,116.27h-26.95v-103.95h26.95v103.95Z"/>
    <path class="cls-1" d="m786.33,343.19v15.02c7.7-11.55,17.13-16.75,31.19-16.75,22.14,0,34.84,13.09,34.84,36v69.69h-26.95v-64.1c0-12.32-5.78-18.67-17.33-18.67-13.09,0-21.75,8.09-21.75,20.41v62.37h-26.95v-103.95h26.95Z"/>
    <path class="cls-1" d="m967.1,343.19v107.42c0,24.45-18.1,38.5-49.47,38.5-27.53,0-45.62-11.36-46.01-29.45h27.91c2.12,7.89,8.86,12.13,19.06,12.13,13.48,0,22.91-8.66,22.91-21.18v-14.05c-10.01,11.36-17.33,15.02-29.45,15.02-25.6,0-42.54-21.56-42.54-53.9s18.48-56.21,43.12-56.21c11.94,0,20.79,5.39,28.88,17.71v-15.98h25.6Zm-70.65,54.09c0,18.87,8.86,31.76,21.56,31.76,14.05,0,23.87-12.9,23.87-31.76s-10.01-33.3-23.49-33.3-21.95,13.67-21.95,33.3Z"/>
  </g>
</svg>